<svg xmlns="http://www.w3.org/2000/svg" viewBox="0 0 400 400" fill="none">
  <defs>
    <linearGradient id="bg" x1="40" y1="20" x2="360" y2="380" gradientUnits="userSpaceOnUse">
      <stop stop-color="#065f46"/>
      <stop offset="1" stop-color="#0f766e"/>
    </linearGradient>
    <linearGradient id="skin" x1="200" y1="100" x2="200" y2="280" gradientUnits="userSpaceOnUse">
      <stop stop-color="#c68642"/>
      <stop offset="1" stop-color="#8d5524"/>
    </linearGradient>
    <linearGradient id="shirt" x1="120" y1="260" x2="280" y2="400" gradientUnits="userSpaceOnUse">
      <stop stop-color="#f8fafc"/>
      <stop offset="1" stop-color="#e2e8f0"/>
    </linearGradient>
  </defs>
  <rect width="400" height="400" fill="url(#bg)"/>
  <circle cx="200" cy="168" r="78" fill="url(#skin)"/>
  <path d="M95 360c18-62 58-92 105-92s87 30 105 92" fill="url(#shirt)"/>
  <path d="M122 148c8-18 24-28 42-28 22 0 36 14 36 36 0 24-16 42-36 42-20 0-36-18-42-50z" fill="#1c1917"/>
  <path d="M158 148c0-16 12-28 28-28s28 12 28 28" fill="#1c1917"/>
  <ellipse cx="176" cy="172" rx="8" ry="10" fill="#1c1917"/>
  <ellipse cx="224" cy="172" rx="8" ry="10" fill="#1c1917"/>
  <path d="M188 198c8 6 16 6 24 0" stroke="#7c2d12" stroke-width="4" stroke-linecap="round"/>
  <ellipse cx="152" cy="188" rx="10" ry="6" fill="#b45309" opacity=".35"/>
  <ellipse cx="248" cy="188" rx="10" ry="6" fill="#b45309" opacity=".35"/>
</svg>
